<?xml version="1.0"?>
<svg width="64" height="64" xmlns="http://www.w3.org/2000/svg" xmlns:svg="http://www.w3.org/2000/svg">
 <defs>
  <linearGradient id="b" x1="0.15" x2="1.09" y1="-0.67" y2="2.45">
   <stop offset="0.2" stop-color="#6f6ab5"/>
   <stop offset="0.34" stop-color="#5a7dc2"/>
   <stop offset="0.79" stop-color="#19b7ee"/>
   <stop offset="1" stop-color="#00cfff"/>
  </linearGradient>
  <linearGradient id="c" x1="-0.34" x2="0.6" y1="-2.28" y2="0.84">
   <stop offset="0.2" stop-color="#6f6ab5"/>
   <stop offset="0.34" stop-color="#5a7dc2"/>
   <stop offset="0.79" stop-color="#19b7ee"/>
   <stop offset="1" stop-color="#00cfff"/>
  </linearGradient>
  <linearGradient id="d" x1="-0.06" x2="0.88" y1="-1.36" y2="1.77">
   <stop offset="0.2" stop-color="#6f6ab5"/>
   <stop offset="0.34" stop-color="#5a7dc2"/>
   <stop offset="0.79" stop-color="#19b7ee"/>
   <stop offset="1" stop-color="#00cfff"/>
  </linearGradient>
 </defs>
 <g class="layer">
  <title>Layer 1</title>
  <g id="svg_6">
   <path d="m36.35,37.73l8.02,0l0,3.55l-12.72,0l0,-2.98l7.9,-12.49l-7.68,0l0,-3.55l12.49,0l0,2.98l-8.02,12.49l0,0z" fill="#3e4265" id="svg_1"/>
   <path d="m61.9,22.26l-6.53,11.69l0,7.45l-3.67,0l0,-7.45l-6.42,-11.69l4.24,0l4.12,7.9l4.12,-7.9l4.12,0z" fill="#3e4265" id="svg_2"/>
   <path d="m19.51,5.77c0.23,-0.11 0.46,-0.23 0.69,-0.23s0.46,0.11 0.69,0.23l7.1,4.12c0.46,0.23 0.69,0.69 0.69,1.26l0,8.25c0,0.46 -0.23,1.03 -0.69,1.26l-7.1,4.12c-0.23,0.11 -0.46,0.23 -0.69,0.23s-0.46,-0.11 -0.69,-0.23l-7.1,-4.12c-0.46,-0.23 -0.69,-0.69 -0.69,-1.26l0,-8.25c0,-0.57 0.23,-1.03 0.69,-1.26l7.1,-4.12zm-0.11,13.75c0.23,0.11 0.57,0.23 0.8,0.23s0.57,-0.11 0.8,-0.23l2.41,-1.37c0.46,-0.34 0.8,-0.8 0.8,-1.37l0,-2.86c0,-0.57 -0.34,-1.15 -0.8,-1.37l-2.41,-1.37c-0.23,-0.11 -0.57,-0.23 -0.8,-0.23s-0.57,0.11 -0.8,0.23l-2.41,1.37c-0.46,0.34 -0.8,0.8 -0.8,1.37l0,2.86c0,0.57 0.34,1.15 0.8,1.37l2.41,1.37l0,0z" fill="url(#b)" fill-rule="evenodd" id="svg_3"/>
   <path d="m19.51,39.22c0.23,-0.11 0.46,-0.23 0.69,-0.23s0.46,0.11 0.69,0.23l7.1,4.12c0.46,0.23 0.69,0.69 0.69,1.26l0,8.25c0,0.46 -0.23,1.03 -0.69,1.26l-6.99,4.12c-0.23,0.11 -0.46,0.23 -0.69,0.23s-0.46,-0.11 -0.69,-0.23l-7.22,-4.12c-0.46,-0.23 -0.69,-0.69 -0.69,-1.26l0,-8.25c0,-0.46 0.23,-1.03 0.69,-1.26l7.1,-4.12zm0,13.86c0.23,0.11 0.57,0.23 0.8,0.23s0.57,-0.11 0.8,-0.23l2.41,-1.37c0.46,-0.34 0.8,-0.8 0.8,-1.37l0,-2.86c0,-0.57 -0.34,-1.15 -0.8,-1.37l-2.41,-1.37c-0.23,-0.11 -0.57,-0.23 -0.8,-0.23s-0.57,0.11 -0.8,0.23l-2.52,1.26c-0.46,0.34 -0.8,0.8 -0.8,1.37l0,2.86c0,0.57 0.34,1.15 0.8,1.37l2.52,1.49z" fill="url(#c)" fill-rule="evenodd" id="svg_4"/>
   <path d="m9.89,22.49c0.23,-0.11 0.46,-0.23 0.69,-0.23s0.46,0.11 0.69,0.23l7.1,4.12c0.46,0.23 0.69,0.69 0.69,1.26l0,8.25c0,0.46 -0.23,1.03 -0.69,1.26l-7.1,4.12c-0.23,0.11 -0.46,0.23 -0.69,0.23s-0.46,-0.11 -0.69,-0.23l-7.1,-4.12c-0.46,-0.23 -0.69,-0.69 -0.69,-1.26l0,-8.25c0,-0.46 0.23,-1.03 0.69,-1.26l7.1,-4.12l0,0zm0,13.75c0.23,0.23 0.46,0.23 0.8,0.23s0.57,-0.11 0.8,-0.23l2.41,-1.37c0.46,-0.34 0.8,-0.8 0.8,-1.37l0,-2.86c0,-0.57 -0.34,-1.15 -0.8,-1.37l-2.41,-1.37c-0.23,-0.11 -0.57,-0.23 -0.8,-0.23s-0.57,0 -0.8,0.11l-2.41,1.37c-0.46,0.34 -0.8,0.8 -0.8,1.37l0,2.86c0,0.57 0.34,1.15 0.8,1.37l2.41,1.49l0,0z" fill="url(#d)" fill-rule="evenodd" id="svg_5"/>
  </g>
 </g>
</svg>