<?xml version="1.0" standalone="no"?>
<!DOCTYPE svg PUBLIC "-//W3C//DTD SVG 20010904//EN"
 "http://www.w3.org/TR/2001/REC-SVG-20010904/DTD/svg10.dtd">
<svg version="1.0" xmlns="http://www.w3.org/2000/svg"
 width="700.000000pt" height="700.000000pt" viewBox="0 0 700.000000 700.000000"
 preserveAspectRatio="xMidYMid meet">
<metadata>
Created by potrace 1.14, written by Peter Selinger 2001-2017
</metadata>
<g transform="translate(0.000000,700.000000) scale(0.100000,-0.100000)"
fill="#000000" stroke="none">
<path d="M2179 6386 c-20 -6 -221 -119 -447 -250 -347 -202 -413 -244 -429
-273 -17 -31 -18 -69 -18 -536 0 -582 -7 -541 102 -604 38 -22 229 -133 425
-247 255 -147 367 -207 391 -208 18 -1 55 10 82 24 43 22 730 419 792 459 12
7 31 34 42 59 17 42 19 74 17 535 -1 455 -2 492 -19 520 -19 30 -42 46 -242
161 -60 35 -117 68 -125 74 -8 6 -26 16 -40 22 -14 7 -27 15 -30 18 -3 3 -16
11 -30 18 -14 6 -32 16 -40 22 -13 9 -180 106 -285 166 -78 45 -107 52 -146
40z m133 -620 c272 -145 301 -166 325 -234 18 -52 17 -381 -2 -425 -22 -53
-67 -89 -206 -167 -183 -103 -190 -105 -250 -92 -49 12 -314 156 -356 195 -47
42 -55 88 -51 294 l3 191 30 43 c30 42 75 72 290 190 91 50 131 51 217 5z"/>
<path d="M1073 4533 c-37 -19 -80 -44 -95 -54 -14 -11 -29 -19 -32 -19 -3 0
-46 -25 -97 -55 -50 -30 -93 -55 -94 -55 -1 0 -110 -63 -241 -139 -219 -127
-241 -143 -262 -182 l-22 -43 0 -488 c1 -282 5 -499 10 -514 16 -41 38 -57
215 -159 94 -54 235 -136 315 -183 80 -47 165 -96 190 -110 25 -14 62 -36 84
-49 21 -14 55 -31 76 -38 53 -19 89 -3 370 164 8 5 130 76 270 157 140 81 263
154 274 163 50 43 50 42 51 556 0 264 -3 496 -8 517 -5 20 -21 47 -35 61 -23
20 -220 139 -384 231 -24 13 -88 50 -143 83 -55 32 -107 62 -115 66 -8 4 -33
18 -55 32 -67 42 -151 84 -178 89 -17 3 -50 -8 -94 -31z m315 -659 c224 -126
223 -123 219 -399 -2 -183 -3 -191 -27 -227 -25 -37 -74 -73 -165 -122 -27
-15 -57 -31 -65 -36 -101 -63 -127 -74 -181 -74 -48 -1 -63 4 -112 37 -31 20
-59 37 -62 37 -4 0 -32 17 -63 38 -31 21 -76 49 -99 62 -24 13 -55 41 -70 63
-28 40 -28 42 -31 226 -2 102 -1 200 3 218 8 44 78 115 150 153 33 18 91 50
129 73 79 47 133 58 194 41 24 -7 105 -47 180 -90z"/>
<path d="M3486 4560 c-2 -5 1 -335 3 -370 1 -13 53 -15 411 -14 226 1 412 -2
414 -5 3 -4 -29 -58 -69 -121 -41 -63 -80 -125 -87 -138 -7 -12 -113 -181
-236 -375 -123 -194 -277 -436 -342 -540 l-119 -187 2 -163 2 -162 694 0 694
0 0 189 c0 120 -4 190 -11 195 -5 3 -202 6 -436 5 -234 0 -426 2 -425 5 0 3
26 45 57 94 31 48 131 203 222 345 90 141 194 302 229 357 36 55 70 108 76
117 5 10 72 114 147 231 l137 213 1 110 c1 60 1 134 1 164 l-1 56 -681 0
c-374 0 -682 -3 -683 -6z"/>
<path d="M4979 4515 c81 -143 264 -476 349 -635 25 -47 56 -102 69 -122 12
-21 23 -40 23 -42 0 -2 17 -35 38 -73 44 -77 83 -149 150 -273 l46 -85 1 -405
0 -405 200 0 200 0 0 406 1 405 106 190 c58 104 118 212 133 239 16 28 110
196 210 375 100 179 200 359 223 401 l41 75 -224 0 c-123 -1 -225 -3 -228 -6
-3 -3 -29 -52 -60 -110 -30 -58 -78 -150 -107 -205 -87 -166 -253 -488 -265
-512 -5 -13 -12 -23 -15 -23 -7 0 -49 78 -245 455 -37 72 -97 186 -133 255
-35 69 -69 130 -74 135 -5 6 -99 10 -238 10 l-229 1 28 -51z"/>
<path d="M2186 2732 c-21 -4 -66 -28 -201 -107 -114 -67 -338 -197 -520 -303
-101 -59 -146 -90 -160 -114 -19 -32 -20 -51 -20 -543 0 -471 1 -512 18 -536
16 -24 791 -477 878 -513 46 -19 83 -6 230 82 63 37 243 144 400 236 265 156
288 172 306 210 19 39 20 62 19 536 -1 475 -2 496 -21 528 -18 31 -108 86
-515 320 -19 11 -105 60 -190 109 -152 88 -186 103 -224 95z m151 -643 c43
-23 124 -68 181 -102 141 -84 142 -86 142 -330 0 -138 -4 -197 -14 -221 -17
-42 -71 -95 -122 -121 -21 -11 -83 -46 -138 -77 -110 -63 -167 -78 -219 -57
-81 33 -339 194 -365 228 -27 36 -27 37 -30 226 -5 288 -5 289 241 411 202
100 212 102 324 43z"/>
</g>
</svg>
